<?xml version="1.0" standalone="no"?>
<!DOCTYPE svg PUBLIC "-//W3C//DTD SVG 20010904//EN"
 "http://www.w3.org/TR/2001/REC-SVG-20010904/DTD/svg10.dtd">
<svg version="1.0" xmlns="http://www.w3.org/2000/svg"
 width="140.000000pt" height="167.000000pt" viewBox="0 0 140.000000 167.000000"
 preserveAspectRatio="xMidYMid meet">
<metadata>
Created by potrace 1.16, written by Peter Selinger 2001-2019
</metadata>
<g transform="translate(0.000000,167.000000) scale(0.100000,-0.100000)"
fill="#000000" stroke="none">
<path d="M520 1341 c0 -5 -8 -8 -17 -7 -10 0 -17 -5 -15 -12 1 -8 -2 -11 -8
-7 -12 7 -69 -32 -110 -76 -116 -122 -171 -291 -150 -465 11 -95 19 -123 53
-191 26 -50 26 -52 11 -105 -9 -29 -22 -66 -29 -83 -24 -54 -34 -94 -26 -100
9 -5 64 13 170 55 l54 21 61 -31 c82 -41 157 -60 242 -60 135 0 287 57 373
142 52 50 118 144 132 186 6 20 15 42 20 47 22 28 40 265 20 265 -5 0 -6 -29
-3 -65 3 -45 1 -65 -7 -65 -6 0 -10 13 -9 33 3 31 2 32 -41 37 -40 4 -46 8
-53 36 -7 28 -83 104 -103 104 -4 0 -5 -12 -1 -27 3 -16 3 -22 0 -15 -6 12
-34 17 -34 6 0 -3 10 -14 23 -25 12 -10 17 -18 11 -19 -5 0 -23 14 -39 30 -16
17 -35 30 -43 30 -10 0 -7 7 9 21 22 20 23 21 3 15 -18 -6 -25 1 -48 49 -27
57 -34 63 -54 43 -10 -10 -17 -10 -32 0 -24 15 -30 15 -30 2 0 -5 11 -12 25
-16 30 -7 33 -24 5 -24 -11 0 -20 4 -20 10 0 5 -12 13 -26 16 -19 5 -22 9 -12
15 9 6 6 9 -10 9 -22 0 -24 3 -20 53 3 51 2 53 -20 49 -15 -3 -28 4 -43 22
-24 31 -36 33 -41 6 -3 -19 -4 -19 -32 3 -16 12 -41 34 -55 48 -38 38 -81 59
-81 40z m282 -302 c11 -6 26 -26 34 -45 13 -30 12 -38 -2 -71 -10 -21 -17 -41
-16 -44 2 -12 -100 9 -116 24 -10 11 -17 33 -17 58 0 66 62 107 117 78z m52
-211 c11 -16 16 -46 16 -100 l0 -78 -105 0 -105 0 -1 63 c-3 127 5 137 107
137 64 0 75 -3 88 -22z m-245 -32 c14 -17 23 -116 12 -134 -5 -9 -30 -12 -86
-10 l-79 3 3 65 c1 46 7 69 18 78 23 17 117 16 132 -2z m444 2 c11 -9 17 -31
18 -74 1 -33 0 -65 -3 -70 -4 -5 -43 -7 -89 -4 l-83 5 3 60 c3 78 18 95 86 95
28 0 59 -6 68 -12z"/>
</g>
</svg>
